<svg viewBox="0 0 32 32" shape-rendering="crispEdges" xmlns="http://www.w3.org/2000/svg"><rect x="4" y="1" width="24" height="1" fill="#E87361"/><rect x="4" y="2" width="24" height="1" fill="#E87361"/><rect x="4" y="3" width="24" height="1" fill="#E87361"/><rect x="4" y="4" width="24" height="1" fill="#E87361"/><rect x="4" y="5" width="24" height="1" fill="#E87361"/><rect x="4" y="6" width="3" height="1" fill="#E87361"/><rect x="7" y="6" width="3" height="1" fill="#1A0F08"/><rect x="10" y="6" width="12" height="1" fill="#E87361"/><rect x="22" y="6" width="3" height="1" fill="#1A0F08"/><rect x="25" y="6" width="3" height="1" fill="#E87361"/><rect x="1" y="7" width="6" height="1" fill="#E87361"/><rect x="7" y="7" width="3" height="1" fill="#1A0F08"/><rect x="10" y="7" width="12" height="1" fill="#E87361"/><rect x="22" y="7" width="3" height="1" fill="#1A0F08"/><rect x="25" y="7" width="6" height="1" fill="#E87361"/><rect x="1" y="8" width="6" height="1" fill="#E87361"/><rect x="7" y="8" width="3" height="1" fill="#1A0F08"/><rect x="10" y="8" width="12" height="1" fill="#E87361"/><rect x="22" y="8" width="3" height="1" fill="#1A0F08"/><rect x="25" y="8" width="6" height="1" fill="#E87361"/><rect x="1" y="9" width="30" height="1" fill="#E87361"/><rect x="1" y="10" width="30" height="1" fill="#E87361"/><rect x="1" y="11" width="30" height="1" fill="#E87361"/><rect x="4" y="12" width="24" height="1" fill="#E87361"/><rect x="4" y="13" width="24" height="1" fill="#E87361"/><rect x="4" y="14" width="24" height="1" fill="#E87361"/><rect x="4" y="15" width="24" height="1" fill="#E87361"/><rect x="4" y="16" width="24" height="1" fill="#E87361"/><rect x="4" y="17" width="24" height="1" fill="#E87361"/><rect x="4" y="18" width="3" height="1" fill="#E87361"/><rect x="9" y="18" width="3" height="1" fill="#E87361"/><rect x="20" y="18" width="3" height="1" fill="#E87361"/><rect x="25" y="18" width="3" height="1" fill="#E87361"/><rect x="4" y="19" width="3" height="1" fill="#E87361"/><rect x="9" y="19" width="3" height="1" fill="#E87361"/><rect x="20" y="19" width="3" height="1" fill="#E87361"/><rect x="25" y="19" width="3" height="1" fill="#E87361"/><rect x="4" y="20" width="3" height="1" fill="#E87361"/><rect x="9" y="20" width="3" height="1" fill="#E87361"/><rect x="20" y="20" width="3" height="1" fill="#E87361"/><rect x="25" y="20" width="3" height="1" fill="#E87361"/><rect x="4" y="21" width="3" height="1" fill="#E87361"/><rect x="9" y="21" width="3" height="1" fill="#E87361"/><rect x="20" y="21" width="3" height="1" fill="#E87361"/><rect x="25" y="21" width="3" height="1" fill="#E87361"/><rect x="4" y="22" width="3" height="1" fill="#E87361"/><rect x="9" y="22" width="3" height="1" fill="#E87361"/><rect x="20" y="22" width="3" height="1" fill="#E87361"/><rect x="25" y="22" width="3" height="1" fill="#E87361"/><rect x="4" y="23" width="3" height="1" fill="#E87361"/><rect x="9" y="23" width="3" height="1" fill="#E87361"/><rect x="20" y="23" width="3" height="1" fill="#E87361"/><rect x="25" y="23" width="3" height="1" fill="#E87361"/><rect x="15" y="14" width="2" height="1" fill="#FF7000"/><rect x="14" y="15" width="4" height="1" fill="#FF7000"/><rect x="14" y="16" width="4" height="1" fill="#FF7000"/><rect x="15" y="17" width="2" height="1" fill="#FF7000"/></svg>
